<svg width="324" height="243" viewBox="0 0 324 243" fill="none" xmlns="http://www.w3.org/2000/svg">
<g clip-path="url(#clip0_140_463)">
<path d="M224.019 71.0097C201.669 50.0267 175.485 44.6097 168.566 43.5045C173.229 30.9092 180.43 12.1856 182.224 9.41511C183.384 9.26919 184.552 9.20223 185.721 9.21473C190.805 9.21473 201.69 10.2718 217.452 17.3674C240.215 27.6136 246.265 39.1379 247.465 41.9569L224.019 71.0097Z" fill="white"/>
<path d="M185.721 10.5966C190.695 10.5966 201.359 11.6399 216.866 18.6249C237.429 27.8969 244.071 38.2605 245.837 41.7634L223.888 68.9922C213.031 59.2062 200.354 51.6604 186.584 46.7864C181.334 44.894 175.941 43.4314 170.456 42.4128C175.609 28.5464 181.21 14.2722 183.093 10.7071C183.707 10.6519 184.59 10.5966 185.735 10.5966H185.721ZM185.735 7.83297C184.333 7.80352 182.932 7.90068 181.548 8.12317C179.934 8.66206 166.69 44.6308 166.69 44.6308C166.69 44.6308 198.124 47.8434 224.164 73.0407L248.997 42.2123C248.997 42.2123 244.858 28.2147 217.956 16.11C202.207 9.01443 191.233 7.81915 185.68 7.81915L185.735 7.83297Z" fill="#A0C6F4"/>
<path d="M171.291 47.4287C171.291 47.4287 202.201 50.5518 221.239 68.0664" stroke="white" stroke-width="0.412564" stroke-linecap="round" stroke-linejoin="round"/>
<path d="M197.972 45.9159L209.506 23.4613L221.356 46.8763L197.972 45.9159Z" fill="#A0C6F4"/>
<path d="M200.214 45.5977L211.747 23.1434L223.598 46.5582L200.214 45.5977Z" stroke="white" stroke-width="0.412564" stroke-linecap="round" stroke-linejoin="round"/>
<path d="M189.398 6.4649C189.398 6.4649 224.067 9.61545 245.589 35.2343" stroke="white" stroke-width="0.412564" stroke-linecap="round" stroke-linejoin="round"/>
<path d="M207.105 105.969C205.201 104.587 203.953 103.627 203.953 103.627C204.477 102.936 212.816 94.0302 217.645 86.8586C217.645 86.8586 207.878 106.543 207.105 105.969Z" fill="white"/>
<path d="M88.9495 41.1139C89.8806 42.6686 90.2874 42.0464 92.9707 41.8046C95.654 41.5629 99.4756 43.5597 100.814 46.8693C102.152 50.1785 101.745 50.69 101.021 51.1042C100.297 51.5189 95.1437 52.1406 94.9366 53.177" stroke="white" stroke-width="0.412564" stroke-linecap="round" stroke-linejoin="round"/>
<path d="M158.46 209.322L156.053 205.253L147.527 219.492L149.762 221.22L158.46 209.322Z" fill="#F9865F"/>
<path d="M101.835 174.052C101.835 174.052 97.4132 166.859 99.3102 163.329L113.41 164.841L101.835 174.052Z" fill="#F9865F"/>
<path d="M101.835 174.052L102.676 176L100.076 186.17C99.9113 186.798 99.9274 187.46 100.121 188.079C100.315 188.699 100.679 189.251 101.172 189.673L114.065 170.583C114.656 169.704 114.915 168.644 114.794 167.591C114.674 166.539 114.183 165.564 113.41 164.841L110.526 162.161L101.835 174.052Z" fill="black"/>
<path d="M94.9369 53.2046C98.9722 53.1081 104.09 52.8523 103.063 49.7502C102.035 46.6481 98.2341 38.9929 89.508 41.2935C89.508 41.2935 86.4385 43.8567 90.2737 48.4721C94.1089 53.0874 94.9369 53.2046 94.9369 53.2046Z" fill="#2A1E33"/>
<path d="M115.369 164.98C115.369 164.98 108.471 144.598 114.306 135.651C119.135 128.265 134.848 140.273 137.001 141.869L148.251 121.543C148.251 121.543 145.658 117.895 139.284 114.323C132.91 110.751 106.567 100.055 94.1849 119.622C89.6116 126.849 89.5427 157.877 98.3237 169.768L115.369 164.98Z" fill="#3B3B5F"/>
<path d="M115.369 164.98C115.369 164.98 108.471 144.598 114.306 135.651C119.135 128.265 134.848 140.273 137.001 141.869" stroke="white" stroke-width="0.412564" stroke-linecap="round" stroke-linejoin="round"/>
<path d="M148.251 121.542C143.133 126.938 127.964 153.22 124.55 165.761C119.99 182.564 121.708 196.499 146.789 223.797L158.909 206.109C158.909 206.109 150.383 193.148 152.011 180.926C154.315 163.246 166.876 146.104 173.229 135.229L148.251 121.542Z" fill="#3B3B5F"/>
<path d="M150.176 123.822L170.339 139.679L176.368 130.503L150.176 123.822Z" fill="#8C3C6C"/>
<path d="M266.007 107.158C269.152 107.835 271.548 109.035 273.195 110.757C274.843 112.485 274.098 113.383 273.498 113.908C272.898 114.433 270.573 113.832 268.552 112.035C266.531 110.239 266.007 107.158 266.007 107.158Z" fill="#FF8A66"/>
<path d="M203.953 103.627C204.477 102.936 212.816 94.0302 217.645 86.8586C217.645 86.8586 232.235 103.233 233.821 103.766C234.407 103.959 237.96 103.91 242.43 103.869C249.935 103.786 259.916 103.71 262.124 104.822C265.641 106.577 267.752 107.462 268.628 109.928C269.504 112.395 269.856 114.005 267.752 114.15C265.29 114.329 263.71 111.158 263.71 111.158C261.39 112.406 258.975 113.466 256.488 114.329C256.488 114.329 237.787 121.598 225.288 118.081C221.887 117.121 203.953 103.627 203.953 103.627Z" fill="#F9865F"/>
<path d="M90.598 38.2191C88.9977 38.834 88.0183 39.5664 88.9494 41.114C89.8806 42.6616 90.2874 42.0469 92.9707 41.8051C95.654 41.5629 99.4756 43.5597 100.814 46.8693C102.152 50.1789 101.745 50.6901 101.021 51.1047C100.297 51.5189 95.1437 52.1411 94.937 53.1774C94.7299 54.2138 97.0064 57.2606 101.773 57.0601L102.904 56.8529C102.904 56.8529 112.885 66.6154 114.334 68.0594C115.783 69.5034 126.392 76.7096 132.269 78.1742C136.711 79.2865 145.72 77.8566 151.128 76.7926C153.756 76.2744 155.543 75.8527 155.543 75.8527C155.543 75.8527 151.48 68.5223 150.652 57.2606C150.652 57.2606 140.939 58.8221 134.483 60.245C134.483 60.245 119.418 51.83 112.092 48.1062C112.092 48.1062 105.691 40.2573 102.697 39.2209C99.7033 38.1846 92.764 37.3969 90.598 38.2191Z" fill="#F9865F"/>
<path d="M151.1 76.8268C153.728 76.3086 155.515 75.8874 155.515 75.8874C155.515 75.8874 150.597 69.6692 149.776 58.4211C149.776 58.4211 147.555 60.8185 148.244 67.1955C149.114 75.2516 151.1 76.8268 151.1 76.8268Z" fill="white"/>
<path d="M149.569 57.157C149.569 57.157 149.707 70.9267 153.39 76.668L154.708 76.1362C154.708 76.1362 137.359 96.4694 131.744 109.756C130.827 111.932 167.773 135.568 173.229 135.236C173.229 135.236 191.233 107.718 197.372 99.5578L203.994 104.698C203.994 104.698 216.969 91.5293 217.666 86.8591C217.666 86.8591 205.132 71.5831 194.902 67.106C184.673 62.6288 175.436 54.9737 164.42 55.2155C154.887 55.3607 149.569 57.157 149.569 57.157Z" fill="#471C36"/>
<path d="M203.967 104.698L197.352 99.5578L198.407 96.6835L203.967 104.698Z" fill="white"/>
<path d="M214.038 50.2614C212.879 53.875 209.533 64.3145 205.801 65.5997C202.069 66.8848 198.214 65.275 198.214 65.275L194.24 67.306C193.799 68.6394 190.66 69.7864 186.611 69.9456C183.611 70.0628 181.782 66.2008 182.672 63.4094C183.079 62.1242 184.604 55.8095 184.604 55.8095C184.604 55.8095 187.818 43.9537 190.812 41.5076C193.806 39.0619 196.551 36.6299 204.449 39.8288C216.479 44.7202 214.038 50.2614 214.038 50.2614Z" fill="#F9865F"/>
<path d="M190.053 50.7796C189.522 52.9905 187.225 57.4264 185.714 56.6248C184.204 55.8236 183.679 53.7921 184.742 49.8885C185.804 45.9848 186.694 37.1274 189.701 35.5314C192.709 33.9354 194.04 35.794 194.04 35.794C194.04 35.794 192.709 29.3271 196.606 28.4358C196.606 28.4358 197.931 27.8209 197.4 32.2497C197.915 31.0319 198.823 30.0217 199.978 29.3795C201.133 28.7373 202.468 28.5 203.773 28.7053C208.602 29.2373 210.32 36.0634 210.32 36.0634C210.459 35.4996 210.794 35.0033 211.263 34.6621C211.732 34.3208 212.307 34.1565 212.886 34.198C215.1 34.198 218.466 37.4798 217.666 41.1071C217.666 41.1071 223.329 39.3314 226.336 43.8708C229.344 48.4098 228.992 53.3569 221.736 55.3054C214.148 57.3435 214.217 48.4791 213.065 47.3252C211.913 46.1713 210.678 44.8449 206.429 46.4411C202.18 48.0369 197.751 43.3386 197.751 43.3386C197.751 43.3386 197.061 49.0109 196.337 49.5568C195.613 50.1026 194.213 50.8006 194.565 48.1404C194.916 45.4806 195.364 45.743 195.095 45.0384C194.827 44.3337 193.633 42.0881 191.115 44.0643C188.287 46.2336 190.053 50.7796 190.053 50.7796Z" fill="#2A1E33"/>
<path d="M191.26 51.7606C189.57 50.379 188.397 47.8363 189.881 45.3354C191.364 42.8344 193.799 42.4957 194.537 43.4421C195.275 44.389 195.565 45.9848 194.868 47.878" stroke="#2A1E33" stroke-width="0.412564" stroke-linecap="round" stroke-linejoin="round"/>
<path d="M149.769 221.22L150.61 223.161L148.01 233.331C147.845 233.959 147.861 234.621 148.055 235.241C148.249 235.86 148.614 236.413 149.107 236.834L161.985 217.744C162.576 216.866 162.835 215.805 162.715 214.753C162.594 213.7 162.104 212.725 161.33 212.003L158.447 209.322L149.769 221.22Z" fill="black"/>
<path d="M194.04 35.7939C194.04 35.7939 193.047 32.5811 190.088 31.7313" stroke="#2A1E33" stroke-width="0.412564" stroke-linecap="round" stroke-linejoin="round"/>
<path d="M131.303 108.782L167.021 58.8081" stroke="white" stroke-width="0.412564" stroke-linecap="round" stroke-linejoin="round"/>
<path d="M181.748 62.3041C180.458 63.9829 179.872 71.1961 185.797 71.659C189.176 71.9957 192.575 71.2481 195.503 69.524" stroke="white" stroke-width="0.412564" stroke-linecap="round" stroke-linejoin="round"/>
<path d="M102.663 39.2554C102.663 39.2554 106.746 44.6654 107.388 46.5929" stroke="white" stroke-width="0.412564" stroke-linecap="round" stroke-linejoin="round"/>
<path d="M255.55 111.821C255.55 111.821 258.309 114.067 263.71 111.13C265.676 110.073 264.276 107.579 261.779 108.201C259.281 108.823 256.329 107.89 256.329 107.89" stroke="white" stroke-width="0.412564" stroke-linecap="round" stroke-linejoin="round"/>
<path d="M266.945 107.469C266.945 107.469 269.559 110.53 269.49 112.346" stroke="white" stroke-width="0.412564" stroke-linecap="round" stroke-linejoin="round"/>
<path d="M228.427 107.137C228.427 107.137 230.793 103.98 233.821 103.766" stroke="white" stroke-width="0.412564" stroke-linecap="round" stroke-linejoin="round"/>
<path d="M128.647 65.3786C128.647 65.3786 130.027 61.0673 134.455 60.2797" stroke="white" stroke-width="0.412564" stroke-linecap="round" stroke-linejoin="round"/>
<path d="M140.643 130.794L135.359 140.888C135.359 140.888 117.949 170.397 123.86 189.465" stroke="white" stroke-width="0.412564" stroke-linecap="round" stroke-linejoin="round"/>
<path d="M156.067 164.648L173.195 135.236C173.195 135.236 195.648 102.619 197.944 98.0515L205.871 83.3696" stroke="white" stroke-width="0.412564" stroke-linecap="round" stroke-linejoin="round"/>
<path d="M133.704 111.918C133.704 111.918 164.172 134.165 173.201 135.236" stroke="white" stroke-width="0.412564" stroke-linecap="round" stroke-linejoin="round"/>
<path d="M149.569 57.157C149.569 57.157 149.569 71.1203 153.301 76.8409" stroke="white" stroke-width="0.412564" stroke-linecap="round" stroke-linejoin="round"/>
<path d="M216.666 84.6478C215.707 90.3964 202.994 102.48 202.994 102.48" stroke="white" stroke-width="0.412564" stroke-linecap="round" stroke-linejoin="round"/>
<path d="M121.777 156.309C122.775 156.309 123.584 155.499 123.584 154.499C123.584 153.499 122.775 152.689 121.777 152.689C120.779 152.689 119.97 153.499 119.97 154.499C119.97 155.499 120.779 156.309 121.777 156.309Z" fill="white"/>
<path d="M291.495 193.431L290.495 186.501L296.393 190.433L293.309 191.103L291.495 193.431Z" stroke="white" stroke-width="0.412564" stroke-linecap="round" stroke-linejoin="round"/>
<path d="M95.7645 75.1275C84.5828 65.2404 66.1033 89.8853 133.703 168.331C172.711 213.585 203.373 217.641 207.512 201.895C214.962 173.651 188.06 166.514 198.075 177.575C212.63 193.659 254.025 197.059 284.88 182.052C315.321 167.239 296.606 144.239 294.716 142.891" stroke="white" stroke-width="0.412564" stroke-linecap="round" stroke-linejoin="round"/>
<path d="M285.39 183.717C286.388 183.717 287.197 182.907 287.197 181.907C287.197 180.907 286.388 180.097 285.39 180.097C284.392 180.097 283.583 180.907 283.583 181.907C283.583 182.907 284.392 183.717 285.39 183.717Z" fill="white"/>
<path d="M259.068 196.699L312.686 166.424" stroke="white" stroke-width="0.412564" stroke-linecap="round" stroke-linejoin="round"/>
<path d="M96.8824 78.4023C97.8804 78.4023 98.6894 77.5916 98.6894 76.592C98.6894 75.5924 97.8804 74.7817 96.8824 74.7817C95.884 74.7817 95.075 75.5924 95.075 76.592C95.075 77.5916 95.884 78.4023 96.8824 78.4023Z" fill="white"/>
<path d="M143.009 43.0692C145.154 43.0692 146.892 41.3277 146.892 39.1794C146.892 37.0311 145.154 35.2896 143.009 35.2896C140.864 35.2896 139.125 37.0311 139.125 39.1794C139.125 41.3277 140.864 43.0692 143.009 43.0692Z" fill="#FF6D66"/>
<path d="M72.5942 9.53267C72.2554 9.53131 71.9242 9.63061 71.642 9.81808C71.3598 10.0055 71.1395 10.2726 71.0087 10.5856C70.8783 10.8985 70.8432 11.2433 70.9084 11.5761C70.974 11.909 71.1362 12.2149 71.375 12.4552C71.6143 12.6955 71.9188 12.8594 72.2509 12.9261C72.583 12.9928 72.9275 12.9593 73.2402 12.8298C73.5534 12.7003 73.8211 12.4807 74.0093 12.1988C74.1974 11.9168 74.298 11.5853 74.298 11.2461C74.298 10.7929 74.1186 10.3581 73.7993 10.0369C73.4799 9.7158 73.0467 9.53448 72.5942 9.53267Z" fill="#A0C6F4"/>
<path d="M301.187 221.765C302.128 221.765 302.891 221.001 302.891 220.059C302.891 219.116 302.128 218.352 301.187 218.352C300.246 218.352 299.483 219.116 299.483 220.059C299.483 221.001 300.246 221.765 301.187 221.765Z" fill="#FAD8B0"/>
<path d="M270.704 142.884L252.349 134.269C252.025 134.109 251.754 133.86 251.565 133.552C251.377 133.243 251.28 132.888 251.285 132.527C251.29 132.165 251.397 131.812 251.594 131.509C251.791 131.206 252.069 130.965 252.397 130.814L286.515 115.78C286.754 115.674 287.012 115.62 287.273 115.62C287.535 115.62 287.793 115.674 288.032 115.78L311.486 125.854L270.704 142.884Z" fill="#2A1E33"/>
<path d="M269.594 114.557C269.635 122.157 270.725 142.885 270.725 142.885L311.506 125.826L310.589 96.981C310.577 96.5717 310.464 96.1719 310.26 95.8171C310.056 95.4623 309.768 95.1636 309.422 94.9475C309.075 94.7313 308.679 94.6046 308.272 94.5782C307.864 94.5522 307.456 94.6273 307.084 94.7977L271.981 110.827C271.264 111.15 270.657 111.674 270.234 112.337C269.81 112.999 269.588 113.771 269.594 114.557Z" fill="#121212"/>
<path d="M270.704 142.884L311.485 125.826L310.568 96.9805C310.568 96.9805 310.299 93.8302 307.064 94.7972" stroke="white" stroke-width="0.412564" stroke-linecap="round" stroke-linejoin="round"/>
<path d="M290.439 122.15L293.192 115.635" stroke="white" stroke-width="0.412564" stroke-linecap="round" stroke-linejoin="round"/>
<path d="M293.192 122.15L295.944 115.635" stroke="white" stroke-width="0.412564" stroke-linecap="round" stroke-linejoin="round"/>
<path d="M79.9407 193.245C80.8814 193.245 81.6442 192.481 81.6442 191.538C81.6442 190.596 80.8814 189.832 79.9407 189.832C78.9996 189.832 78.2368 190.596 78.2368 191.538C78.2368 192.481 78.9996 193.245 79.9407 193.245Z" fill="#FF6D66"/>
<path d="M223.784 202.386C225.095 202.386 226.157 201.321 226.157 200.009C226.157 198.696 225.095 197.632 223.784 197.632C222.474 197.632 221.411 198.696 221.411 200.009C221.411 201.321 222.474 202.386 223.784 202.386Z" fill="#FF6D66"/>
<path d="M97.6269 216.888C104.381 219.997 111.736 221.577 119.169 221.517C119.307 221.518 119.444 221.548 119.569 221.605C119.694 221.663 119.807 221.746 119.898 221.849C119.989 221.953 120.057 222.075 120.098 222.207C120.139 222.339 120.152 222.478 120.135 222.615L118.645 234.443C118.616 234.649 118.521 234.839 118.376 234.987C118.231 235.135 118.043 235.233 117.838 235.266C114.817 235.839 102.663 237.511 93.5433 229.739C93.4047 229.619 93.3024 229.463 93.2487 229.288C93.1951 229.114 93.1918 228.927 93.2401 228.75L96.2472 217.468C96.2889 217.331 96.3603 217.205 96.456 217.099C96.5517 216.993 96.6697 216.909 96.8013 216.854C96.9329 216.798 97.0753 216.772 97.218 216.778C97.3608 216.784 97.5002 216.822 97.6269 216.888Z" fill="#FFF7DC"/>
<path d="M98.6963 220.342C98.6963 220.342 103.952 227.742 105.829 228.806C107.705 229.87 117.831 223.817 117.831 223.817" stroke="white" stroke-width="0.412564" stroke-linecap="round" stroke-linejoin="round"/>
<path d="M110.789 227.783L116.314 233.469" stroke="white" stroke-width="0.412564" stroke-linecap="round" stroke-linejoin="round"/>
<path d="M103.111 226.685L96.6475 228.446" stroke="white" stroke-width="0.412564" stroke-linecap="round" stroke-linejoin="round"/>
<path d="M266.793 76.9027H260.62V83.0866H266.793V76.9027Z" fill="#FFE1C0"/>
<path d="M261.454 160.288L263.289 163.474L265.124 166.659H261.454H257.792L259.619 163.474L261.454 160.288Z" fill="#A0C6F4"/>
<path d="M113.113 19.2882L113.596 4.83444C113.541 3.45263 114.092 3.05881 114.92 2.87227C118.839 2.00863 130.786 -0.651355 143.706 3.18318C145.382 3.68063 145.327 4.565 145.299 5.36644L144.837 19.1431C144.803 19.4006 144.716 19.6481 144.581 19.8698C144.446 20.0914 144.266 20.2823 144.053 20.43C143.84 20.5778 143.598 20.6792 143.344 20.7277C143.089 20.7761 142.827 20.7706 142.575 20.7115C137.878 20.1486 133.148 19.9177 128.42 20.0206C123.872 20.0011 119.33 20.3687 114.845 21.1191C113.561 21.3609 113.079 20.4213 113.113 19.2882Z" stroke="white" stroke-width="0.412564" stroke-linecap="round" stroke-linejoin="round"/>
<path d="M117.472 17.2155L125.019 8.37183L133.366 16.6282C130.482 15.654 117.472 17.2155 117.472 17.2155Z" stroke="white" stroke-width="0.412564" stroke-linecap="round" stroke-linejoin="round"/>
<path d="M129.634 12.4344L135.732 7.54279L140.871 11.2184L141.064 16.9598L133.359 16.5868" stroke="white" stroke-width="0.412564" stroke-linecap="round" stroke-linejoin="round"/>
<path d="M120.732 7.67934C120.802 6.98458 120.198 6.35456 119.384 6.27209C118.569 6.18957 117.851 6.68589 117.781 7.38065C117.711 8.0754 118.315 8.70547 119.13 8.78794C119.945 8.87045 120.662 8.3741 120.732 7.67934Z" stroke="white" stroke-width="0.412564" stroke-linecap="round" stroke-linejoin="round"/>
<path d="M258.936 207.015L263.993 216.369C264.524 217.205 264.338 217.682 263.875 218.11C261.709 220.121 255.108 226.243 245.451 228.633C244.203 228.944 243.906 228.356 243.63 227.838L238.801 218.919C238.728 218.742 238.693 218.552 238.697 218.361C238.701 218.17 238.744 217.982 238.825 217.808C238.905 217.635 239.021 217.48 239.164 217.354C239.307 217.228 239.475 217.132 239.656 217.074C242.849 215.686 245.939 214.07 248.9 212.238C251.817 210.573 254.586 208.662 257.177 206.524C257.867 205.833 258.557 206.282 258.936 207.015Z" stroke="white" stroke-width="0.412564" stroke-linecap="round" stroke-linejoin="round"/>
<path d="M256.95 209.978L255.439 218.401L247.079 216.266C249.251 215.796 256.95 209.978 256.95 209.978Z" stroke="white" stroke-width="0.412564" stroke-linecap="round" stroke-linejoin="round"/>
<path d="M250.983 217.523L248.921 222.898L244.299 222.477L242.043 218.898L247.072 216.266" stroke="white" stroke-width="0.412564" stroke-linecap="round" stroke-linejoin="round"/>
<path d="M259.754 217.668C260.302 217.418 260.574 216.837 260.361 216.372C260.149 215.907 259.533 215.734 258.986 215.984C258.439 216.235 258.167 216.815 258.379 217.28C258.591 217.745 259.207 217.919 259.754 217.668Z" stroke="white" stroke-width="0.412564" stroke-linecap="round" stroke-linejoin="round"/>
<path d="M234.31 47.2906L254.86 63.0435C254.967 63.126 255.089 63.1862 255.219 63.2209C255.35 63.2555 255.485 63.2638 255.619 63.2452C255.753 63.2262 255.881 63.1813 255.997 63.112C256.113 63.0431 256.214 62.9515 256.294 62.843L259.398 58.6282C259.551 58.4182 259.617 58.1575 259.582 57.9C259.547 57.6426 259.415 57.4087 259.212 57.2465L238.953 41.0033C238.845 40.9175 238.722 40.8544 238.59 40.8179C238.457 40.7814 238.319 40.7722 238.182 40.7909C238.046 40.8097 237.915 40.8559 237.797 40.9269C237.68 40.9978 237.578 41.092 237.498 41.2037L234.104 45.9019C233.951 46.1148 233.888 46.3792 233.926 46.6383C233.965 46.8974 234.103 47.1313 234.31 47.2906Z" fill="white" stroke="white" stroke-width="0.412564" stroke-linecap="round" stroke-linejoin="round"/>
<path d="M235.828 46.5859L240.808 50.089L243.754 46.5723L238.767 42.4058L235.828 46.5859Z" fill="#FF6D66"/>
<path d="M242.685 51.457L247.679 55.4226L250.356 52.127L245.327 48.0439L242.685 51.457Z" fill="#FAD8B0"/>
<path d="M249.355 56.9425L254.342 60.4456L256.715 57.3918L251.997 53.4328L249.355 56.9425Z" fill="#A0C6F4"/>
<path d="M275.319 25.2645L280.003 64.6463C280.024 64.8534 280.087 65.0543 280.187 65.2371C280.287 65.4194 280.423 65.5799 280.587 65.709C280.75 65.8378 280.938 65.9326 281.139 65.9875C281.339 66.042 281.549 66.056 281.755 66.0279L289.688 64.9363C290.086 64.8831 290.447 64.6764 290.696 64.3604C290.944 64.0443 291.06 63.6437 291.019 63.2436L287.177 23.6271C287.156 23.4178 287.093 23.215 286.991 23.0309C286.889 22.8468 286.751 22.6852 286.586 22.556C286.42 22.4269 286.23 22.3327 286.027 22.2793C285.824 22.2259 285.612 22.2143 285.404 22.2453L276.637 23.5303C276.234 23.5887 275.87 23.8032 275.624 24.1275C275.378 24.4519 275.268 24.8602 275.319 25.2645Z" fill="white" stroke="white" stroke-width="0.412564" stroke-linecap="round" stroke-linejoin="round"/>
<path d="M277.713 26.1835L279.196 35.4002L286.19 34.882L285.425 24.9537L277.713 26.1835Z" fill="#FF6D66"/>
<path d="M279.7 38.9237L280.686 48.6445L287.156 48.0645L286.259 38.1844L279.7 38.9237Z" fill="#91BA83"/>
<path d="M280.81 52.12L282.293 61.3366L288.177 60.6873L287.466 51.2701L280.81 52.12Z" fill="#FAD8B0"/>
<path d="M265.097 33.6522L278.065 71.8385C278.117 71.994 278.2 72.1376 278.309 72.2605C278.418 72.3839 278.55 72.4842 278.698 72.5555C278.845 72.6269 279.005 72.6677 279.169 72.6764C279.333 72.6851 279.497 72.6611 279.651 72.6054L287.777 69.6762C288.077 69.5665 288.323 69.345 288.465 69.0582C288.606 68.7711 288.632 68.4406 288.536 68.1353L276.361 29.5758C276.31 29.4157 276.227 29.2677 276.117 29.1405C276.007 29.0135 275.873 28.91 275.722 28.8364C275.571 28.7627 275.407 28.7205 275.239 28.7123C275.072 28.704 274.904 28.7298 274.747 28.7882L265.835 32.0976C265.532 32.207 265.284 32.4317 265.146 32.7228C265.008 33.0139 264.99 33.348 265.097 33.6522Z" fill="white" stroke="white" stroke-width="0.412564" stroke-linecap="round" stroke-linejoin="round"/>
<path d="M267.724 34.35L271.09 43.0622L277.823 41.0932L275.016 31.538L267.724 34.35Z" fill="#A0C6F4"/>
<path d="M272.318 46.3994L275.298 55.706L281.507 53.7851L278.582 44.306L272.318 46.3994Z" fill="#F9865F"/>
<path d="M276.14 59.0774L279.506 67.783L285.128 65.9173L282.479 56.8529L276.14 59.0774Z" fill="#FAD8B0"/>
<path d="M167.352 81.8844H101.856C99.7678 81.8844 98.0754 83.5796 98.0754 85.6705V94.5489C98.0754 96.6397 99.7678 98.335 101.856 98.335H167.352C169.439 98.335 171.132 96.6397 171.132 94.5489V85.6705C171.132 83.5796 169.439 81.8844 167.352 81.8844Z" fill="#7595EC"/>
<path d="M142.809 86.7275H107.105C106.415 86.7275 105.856 87.2873 105.856 87.978C105.856 88.669 106.415 89.2289 107.105 89.2289H142.809C143.498 89.2289 144.057 88.669 144.057 87.978C144.057 87.2873 143.498 86.7275 142.809 86.7275Z" fill="white"/>
<path d="M106.215 92.4758H166.91" stroke="white" stroke-width="0.412564" stroke-linecap="round" stroke-linejoin="round"/>
<path d="M75.1587 50.9314L76.1914 52.0639C76.4014 52.2937 76.5111 52.5977 76.4971 52.9092C76.483 53.2203 76.3461 53.5132 76.1167 53.7232L74.4256 55.2703C74.1962 55.4803 73.8926 55.5905 73.5819 55.5765C73.2712 55.5624 72.9787 55.425 72.7687 55.1952L71.7361 54.0628L75.1587 50.9314Z" fill="#91BA83"/>
<path d="M65.8584 48.7299L70.7295 54.071C70.9812 54.347 71.4086 54.3664 71.6846 54.1143L75.0507 51.0341C75.3267 50.782 75.3461 50.3538 75.094 50.0778L70.2233 44.7367C69.9717 44.4607 69.5438 44.4414 69.2682 44.6934L65.9017 47.7736C65.6261 48.0257 65.6067 48.4539 65.8584 48.7299Z" stroke="white" stroke-width="0.412564" stroke-linecap="round" stroke-linejoin="round"/>
<path d="M60.7709 72.9995H54.6526V78.5955H60.7709V72.9995Z" fill="#FF6D66"/>
<path d="M54.6527 69.3994V72.999H50.9966" stroke="white" stroke-width="0.412564" stroke-linecap="round" stroke-linejoin="round"/>
<path d="M262.365 9.80206H256.246V15.3984H262.365V9.80206Z" fill="#FAD8B0"/>
<path d="M256.246 6.20245V9.80211H252.59" stroke="white" stroke-width="0.412564" stroke-linecap="round" stroke-linejoin="round"/>
<path d="M90.6393 44.3956C27.1779 18.0583 -21.6323 68.7847 97.9442 146.456C107.36 152.578 121.804 154.747 121.804 154.747" stroke="white" stroke-width="0.412564" stroke-linecap="round" stroke-linejoin="round"/>
<path d="M32.2894 47.9746C33.2876 47.9746 34.0967 47.1643 34.0967 46.1646C34.0967 45.165 33.2876 44.3543 32.2894 44.3543C31.2913 44.3543 30.4822 45.165 30.4822 46.1646C30.4822 47.1643 31.2913 47.9746 32.2894 47.9746Z" fill="white"/>
<path d="M20.7834 36.2223L22.7632 34.3154L27.3089 36.927L29.5991 43.9949L22.6114 41.0655L20.7834 36.2223Z" stroke="white" stroke-width="0.412564" stroke-linecap="round" stroke-linejoin="round"/>
<path d="M22.7632 34.3154L20.7834 36.2223L19.6729 34.875L21.5698 33.051L22.7632 34.3154Z" stroke="white" stroke-width="0.412564" stroke-linecap="round" stroke-linejoin="round"/>
<path d="M29.5993 43.995L25.0535 38.9998" stroke="white" stroke-width="0.412564" stroke-linecap="round" stroke-linejoin="round"/>
<path d="M40.5808 170.832L45.5058 196.285C45.5322 196.417 45.5846 196.543 45.6593 196.655C45.7344 196.767 45.8309 196.863 45.9431 196.937C46.0553 197.012 46.1812 197.063 46.3132 197.089C46.4452 197.114 46.5814 197.113 46.713 197.086L51.8312 195.995C52.0878 195.94 52.3127 195.787 52.4596 195.57C52.606 195.352 52.663 195.086 52.6176 194.827L48.2444 169.215C48.2209 169.08 48.1697 168.951 48.0946 168.836C48.02 168.72 47.9222 168.622 47.8083 168.546C47.694 168.47 47.5657 168.417 47.4308 168.392C47.2959 168.367 47.1573 168.37 47.0236 168.4L41.374 169.657C41.2449 169.682 41.1219 169.732 41.0121 169.805C40.9023 169.877 40.8079 169.97 40.7343 170.08C40.6606 170.189 40.6091 170.311 40.5828 170.44C40.5564 170.57 40.5557 170.702 40.5808 170.832Z" fill="white" stroke="white" stroke-width="0.412564" stroke-linecap="round" stroke-linejoin="round"/>
<path d="M42.2019 171.315L43.6087 177.25L48.1342 176.58L47.1683 170.148L42.2019 171.315Z" fill="#FF6D66"/>
<path d="M44.1055 179.523L45.2091 185.804L49.3962 185.12L48.3408 178.722L44.1055 179.523Z" fill="#FAD8B0"/>
<path d="M45.4575 188.063L46.8578 193.998L50.6587 193.286L49.7552 187.193L45.4575 188.063Z" fill="#A0C6F4"/>
<path d="M181.79 234.609L202.622 229.027L203.421 231.286L182.348 236.765L181.79 234.609Z" stroke="white" stroke-width="0.412564" stroke-linecap="round" stroke-linejoin="round"/>
<path d="M178.892 231.694L179.499 233.587" stroke="white" stroke-width="0.412564" stroke-linecap="round" stroke-linejoin="round"/>
<path d="M178.306 232.93L180.065 232.322" stroke="white" stroke-width="0.412564" stroke-linecap="round" stroke-linejoin="round"/>
<path d="M177.885 238.928L179.016 242.507" stroke="white" stroke-width="0.412564" stroke-linecap="round" stroke-linejoin="round"/>
<path d="M176.92 241.194L180.051 240.199" stroke="white" stroke-width="0.412564" stroke-linecap="round" stroke-linejoin="round"/>
<path d="M173.119 233.027L174.602 237.767" stroke="white" stroke-width="0.412564" stroke-linecap="round" stroke-linejoin="round"/>
<path d="M171.649 235.977L176.036 234.575" stroke="white" stroke-width="0.412564" stroke-linecap="round" stroke-linejoin="round"/>
<path d="M29.8474 7.88126L16.6653 1.91872L17.2102 0.412537L30.4751 6.52706L29.8474 7.88126Z" stroke="white" stroke-width="0.276418" stroke-linecap="round" stroke-linejoin="round"/>
<path d="M30.1165 10.6311L30.6062 9.38751" stroke="white" stroke-width="0.276418" stroke-linecap="round" stroke-linejoin="round"/>
<path d="M30.9441 10.2373L29.7715 9.80206" stroke="white" stroke-width="0.276418" stroke-linecap="round" stroke-linejoin="round"/>
<path d="M33.7034 7.30093L34.6346 4.9657" stroke="white" stroke-width="0.276418" stroke-linecap="round" stroke-linejoin="round"/>
<path d="M35.1658 6.53408L33.124 5.71881" stroke="white" stroke-width="0.276418" stroke-linecap="round" stroke-linejoin="round"/>
<path d="M33.6758 12.393L34.9174 9.30469" stroke="white" stroke-width="0.276418" stroke-linecap="round" stroke-linejoin="round"/>
<path d="M35.6901 11.4878L32.8206 10.3478" stroke="white" stroke-width="0.276418" stroke-linecap="round" stroke-linejoin="round"/>
<path d="M79.1339 119.428C69.8351 112.726 60.7022 102.308 64.7098 91.6053C64.7098 91.6053 71.1182 87.3286 81.2652 92.6763L91.4192 98.0516L79.1339 119.428Z" fill="url(#paint0_linear_140_463)"/>
<path d="M74.919 164.082C70.7319 162.099 52.8798 152.785 49.6998 136.874C46.9406 123.138 57.4531 104.601 62.7096 96.4071C62.3713 107.275 73.2704 116.478 78.5265 120.264C82.9991 123.558 87.9341 126.171 93.1708 128.017L74.919 164.082Z" fill="white"/>
<path d="M61.9091 99.6407C63.0474 106.868 68.5518 114.35 77.9195 121.107C82.1462 124.232 86.7904 126.746 91.7152 128.576L74.4704 162.707C69.2004 160.081 53.6314 151.196 50.7274 136.673C48.3201 124.603 56.4872 108.595 61.9231 99.6407H61.9091ZM64.7236 91.6056C64.7236 91.6056 44.961 118.357 48.6997 137.081C52.4383 155.805 75.4086 165.408 75.4086 165.408L94.6333 127.408C88.6251 125.204 84.721 123.408 79.1473 119.387C69.8489 112.685 60.716 102.266 64.7236 91.564V91.6056Z" fill="url(#paint1_linear_140_463)"/>
<path d="M59.5156 107.151C60.0953 110.631 61.4683 113.93 63.5286 116.791C65.5886 119.653 68.2805 122 71.3942 123.649" stroke="white" stroke-width="0.412564" stroke-linecap="round" stroke-linejoin="round"/>
<path d="M77.1333 127.491L87.8595 133.247" stroke="white" stroke-width="0.412564" stroke-linecap="round" stroke-linejoin="round"/>
<path d="M61.0469 122.503C61.0469 122.503 64.4959 130.179 75.6017 135.167" stroke="white" stroke-width="0.412564" stroke-linecap="round" stroke-linejoin="round"/>
<path d="M52.2314 123.65C52.2314 123.65 52.618 131.713 57.9776 134.4" stroke="white" stroke-width="0.412564" stroke-linecap="round" stroke-linejoin="round"/>
<path d="M64.496 95.6405C64.496 95.6405 63.5026 106.004 79.1334 119.429" stroke="white" stroke-width="0.412564" stroke-linecap="round" stroke-linejoin="round"/>
<path d="M70.2422 97.561C70.2422 97.561 75.2222 97.174 82.4999 102.549" stroke="white" stroke-width="0.412564" stroke-linecap="round" stroke-linejoin="round"/>
<path d="M46.7887 130.6C46.4714 135.734 47.113 154.34 74.015 166.21" stroke="white" stroke-width="0.412564" stroke-linecap="round" stroke-linejoin="round"/>
<path d="M218.597 120.25L207.188 143.154C207.188 143.154 214.927 146.008 208.878 154.9C208.878 154.9 223.184 160.841 232.545 145.413C241.905 129.985 218.597 120.25 218.597 120.25Z" fill="url(#paint2_linear_140_463)"/>
<path d="M192.481 190.253C186.708 190.253 180.617 187.89 174.36 183.226L195.703 147.797L208.402 155.804L208.484 155.839C210.704 156.655 213.053 157.062 215.417 157.041C219.428 157.066 223.345 155.826 226.613 153.497L211.009 180.269C210.975 180.318 204.256 190.274 192.481 190.274V190.253Z" fill="white"/>
<path d="M196.048 149.248L207.774 156.647L207.926 156.744L208.085 156.806C210.431 157.675 212.915 158.11 215.417 158.091C218.292 158.102 221.136 157.504 223.764 156.336L210.147 179.669C209.706 180.318 203.387 189.217 192.488 189.217C187.17 189.217 181.541 187.11 175.733 182.95L196.048 149.248ZM232.545 145.406C227.254 154.125 220.391 156.019 215.417 156.019C213.188 156.037 210.973 155.656 208.878 154.892L195.365 146.373L173.022 183.489C180.486 189.251 187.018 191.324 192.488 191.324C204.981 191.324 211.906 180.808 211.906 180.808L232.545 145.441V145.406Z" fill="url(#paint3_linear_140_463)"/>
<path d="M207.188 143.154C207.188 143.154 215.7 146.166 208.878 154.899" stroke="white" stroke-width="0.412564" stroke-linecap="round" stroke-linejoin="round"/>
<path d="M195.095 145.572C195.095 145.572 206.691 156.212 213.106 156.136C219.521 156.06 227.054 154.54 231.489 146.871" stroke="white" stroke-width="0.412564" stroke-linecap="round" stroke-linejoin="round"/>
<path d="M196.523 159.335C196.523 159.335 204.477 166.41 213.375 164.137" stroke="white" stroke-width="0.412564" stroke-linecap="round" stroke-linejoin="round"/>
<path d="M204.877 169.906C204.877 169.906 209.05 173.036 214.886 170.072" stroke="white" stroke-width="0.412564" stroke-linecap="round" stroke-linejoin="round"/>
<path d="M185.673 174.273C185.673 174.273 195.33 183.869 210.471 177.541" stroke="white" stroke-width="0.412564" stroke-linecap="round" stroke-linejoin="round"/>
<path d="M190.916 164.911C190.916 164.911 194.847 167.729 197.31 168.628" stroke="white" stroke-width="0.412564" stroke-linecap="round" stroke-linejoin="round"/>
<path d="M220.556 126.897C220.556 126.897 229.351 129.778 230.407 141.406" stroke="white" stroke-width="0.412564" stroke-linecap="round" stroke-linejoin="round"/>
<path d="M224.978 141.261C224.978 141.261 229.027 147.541 222.184 153.814" stroke="white" stroke-width="0.412564" stroke-linecap="round" stroke-linejoin="round"/>
<path d="M173.809 181.762C173.809 181.762 195.882 209.453 211.92 177.071" stroke="white" stroke-width="0.412564" stroke-linecap="round" stroke-linejoin="round"/>
<path d="M14.4028 113.099H19.5487" stroke="#FF6D66" stroke-width="0.412564" stroke-linecap="round" stroke-linejoin="round"/>
<path d="M301.187 51.0767H306.332" stroke="#FF6D66" stroke-width="0.412564" stroke-linecap="round" stroke-linejoin="round"/>
<path d="M163.124 15.7024H168.276" stroke="#FAD8B0" stroke-width="0.412564" stroke-miterlimit="10"/>
<path d="M311.016 77.8219L316.079 78.7337" stroke="#FAD8B0" stroke-width="0.412564" stroke-miterlimit="10"/>
<path d="M108.781 206.489H113.934" stroke="#A0C6F4" stroke-width="0.412564" stroke-linecap="round" stroke-linejoin="round"/>
<path d="M322.108 143.914C323.049 143.914 323.812 143.15 323.812 142.207C323.812 141.265 323.049 140.501 322.108 140.501C321.167 140.501 320.404 141.265 320.404 142.207C320.404 143.15 321.167 143.914 322.108 143.914Z" fill="#91BA83"/>
<path d="M1.77265 61.9589C2.71363 61.9589 3.47645 61.1948 3.47645 60.2521C3.47645 59.3098 2.71363 58.5457 1.77265 58.5457C0.831665 58.5457 0.0688477 59.3098 0.0688477 60.2521C0.0688477 61.1948 0.831665 61.9589 1.77265 61.9589Z" fill="#91BA83"/>
</g>
<defs>
<linearGradient id="paint0_linear_140_463" x1="62.0541" y1="103.151" x2="94.6921" y2="103.263" gradientUnits="userSpaceOnUse">
<stop stop-color="#AA367C"/>
<stop offset="1" stop-color="#4A2FBD"/>
</linearGradient>
<linearGradient id="paint1_linear_140_463" x1="45.4004" y1="124.582" x2="100.121" y2="124.708" gradientUnits="userSpaceOnUse">
<stop stop-color="#AA367C"/>
<stop offset="1" stop-color="#4A2FBD"/>
</linearGradient>
<linearGradient id="paint2_linear_140_463" x1="205.507" y1="136.246" x2="238.023" y2="136.338" gradientUnits="userSpaceOnUse">
<stop stop-color="#AA367C"/>
<stop offset="1" stop-color="#4A2FBD"/>
</linearGradient>
<linearGradient id="paint3_linear_140_463" x1="169.394" y1="165.938" x2="239.583" y2="166.272" gradientUnits="userSpaceOnUse">
<stop stop-color="#AA367C"/>
<stop offset="1" stop-color="#4A2FBD"/>
</linearGradient>
<clipPath id="clip0_140_463">
<rect width="323.862" height="243" fill="white" transform="translate(0.0688477)"/>
</clipPath>
</defs>
</svg>
